<svg xmlns="http://www.w3.org/2000/svg" viewBox="0 0 1200 760" font-family="Helvetica, Arial, sans-serif">
  <!-- Outer canvas background. Keeps the diagram white-on-white whether
       the host page is light or dark. -->
  <rect x="0" y="0" width="1200" height="760" fill="#ffffff"/>

  <!-- node1 -->
  <rect x="30" y="240" width="200" height="200" rx="14" ry="14" fill="#1f2937" stroke="#111827" stroke-width="3"/>
  <text x="130" y="335" text-anchor="middle" fill="#f9fafb" font-weight="700" font-size="28">node1</text>
  <text x="130" y="365" text-anchor="middle" fill="#d1d5db" font-weight="400" font-size="18">@host1</text>

  <!-- node2 -->
  <rect x="970" y="240" width="200" height="200" rx="14" ry="14" fill="#1f2937" stroke="#111827" stroke-width="3"/>
  <text x="1070" y="335" text-anchor="middle" fill="#f9fafb" font-weight="700" font-size="28">node2</text>
  <text x="1070" y="365" text-anchor="middle" fill="#d1d5db" font-weight="400" font-size="18">@host2</text>

  <!-- QUIC connection envelope -->
  <rect x="240" y="80" width="720" height="600" rx="20" ry="20" fill="#f3f4f6" stroke="#9ca3af" stroke-width="2"/>
  <text x="600" y="120" text-anchor="middle" fill="#1f2937" font-weight="700" font-size="22">one QUIC connection &#8226; TLS 1.3 &#8226; encrypted</text>

  <!-- dist control stream -->
  <line x1="260" y1="200" x2="940" y2="200" stroke="#2563eb" stroke-width="4"/>
  <text x="600" y="190" text-anchor="middle" fill="#111827" font-weight="600" font-size="22">dist control stream</text>
  <text x="600" y="222" text-anchor="middle" fill="#4b5563" font-weight="400" font-size="18">gen_server, monitors, global, &#8230;</text>

  <!-- circuit #1 -->
  <line x1="260" y1="320" x2="940" y2="320" stroke="#059669" stroke-width="4"/>
  <text x="600" y="310" text-anchor="middle" fill="#111827" font-weight="600" font-size="22">circuit #1</text>
  <text x="600" y="342" text-anchor="middle" fill="#4b5563" font-weight="400" font-size="18">bulk transfer</text>

  <!-- circuit #2 -->
  <line x1="260" y1="440" x2="940" y2="440" stroke="#059669" stroke-width="4"/>
  <text x="600" y="430" text-anchor="middle" fill="#111827" font-weight="600" font-size="22">circuit #2</text>
  <text x="600" y="462" text-anchor="middle" fill="#4b5563" font-weight="400" font-size="18">low-latency RPC</text>

  <!-- circuit #3 -->
  <line x1="260" y1="560" x2="940" y2="560" stroke="#059669" stroke-width="4"/>
  <text x="600" y="550" text-anchor="middle" fill="#111827" font-weight="600" font-size="22">circuit #3</text>
  <text x="600" y="582" text-anchor="middle" fill="#4b5563" font-weight="400" font-size="18">streaming subscription</text>

  <!-- Connectors from nodes into the envelope, one per stream -->
  <line x1="230" y1="200" x2="260" y2="200" stroke="#2563eb" stroke-width="3"/>
  <line x1="940" y1="200" x2="970" y2="200" stroke="#2563eb" stroke-width="3"/>
  <line x1="230" y1="320" x2="260" y2="320" stroke="#059669" stroke-width="3"/>
  <line x1="940" y1="320" x2="970" y2="320" stroke="#059669" stroke-width="3"/>
  <line x1="230" y1="440" x2="260" y2="440" stroke="#059669" stroke-width="3"/>
  <line x1="940" y1="440" x2="970" y2="440" stroke="#059669" stroke-width="3"/>
  <line x1="230" y1="560" x2="260" y2="560" stroke="#059669" stroke-width="3"/>
  <line x1="940" y1="560" x2="970" y2="560" stroke="#059669" stroke-width="3"/>

  <!-- Caption -->
  <text x="600" y="725" text-anchor="middle" fill="#374151" font-size="16" font-style="italic">
    Multiple streams over a single QUIC connection. Independent flow control, no head-of-line blocking between them.
  </text>
</svg>
