<svg xmlns="http://www.w3.org/2000/svg" viewBox="0 0 1200 760" font-family="ui-sans-serif, system-ui, -apple-system, Segoe UI, Helvetica, Arial, sans-serif">
  <style>
    .node-box     { fill: #1f2937; stroke: #111827; stroke-width: 3; }
    .node-name    { fill: #f9fafb; font-weight: 700; font-size: 28px; }
    .node-host    { fill: #d1d5db; font-weight: 400; font-size: 18px; }

    .conn-box     { fill: #f3f4f6; stroke: #9ca3af; stroke-width: 2; }
    .conn-title   { fill: #1f2937; font-weight: 700; font-size: 22px; }

    .stream-line  { stroke: #2563eb; stroke-width: 4; }
    .circuit-line { stroke: #059669; stroke-width: 4; }

    .stream-label { fill: #111827; font-weight: 600; font-size: 22px; }
    .stream-tag   { fill: #4b5563; font-weight: 400; font-size: 18px; }

    .caption      { fill: #374151; font-size: 16px; font-style: italic; }
  </style>

  <!-- Nodes -->
  <rect class="node-box" x="30" y="240" width="200" height="200" rx="14"/>
  <text class="node-name" x="130" y="335" text-anchor="middle">node1</text>
  <text class="node-host" x="130" y="365" text-anchor="middle">@host1</text>

  <rect class="node-box" x="970" y="240" width="200" height="200" rx="14"/>
  <text class="node-name" x="1070" y="335" text-anchor="middle">node2</text>
  <text class="node-host" x="1070" y="365" text-anchor="middle">@host2</text>

  <!-- QUIC connection envelope -->
  <rect class="conn-box" x="240" y="80" width="720" height="600" rx="20"/>
  <text class="conn-title" x="600" y="120" text-anchor="middle">one QUIC connection &#8226; TLS 1.3 &#8226; encrypted</text>

  <!-- dist control stream -->
  <line class="stream-line" x1="260" y1="200" x2="940" y2="200"/>
  <text class="stream-label" x="600" y="190" text-anchor="middle">dist control stream</text>
  <text class="stream-tag"   x="600" y="222" text-anchor="middle">gen_server, monitors, global, &#8230;</text>

  <!-- circuit #1 -->
  <line class="circuit-line" x1="260" y1="320" x2="940" y2="320"/>
  <text class="stream-label" x="600" y="310" text-anchor="middle">circuit #1</text>
  <text class="stream-tag"   x="600" y="342" text-anchor="middle">bulk transfer</text>

  <!-- circuit #2 -->
  <line class="circuit-line" x1="260" y1="440" x2="940" y2="440"/>
  <text class="stream-label" x="600" y="430" text-anchor="middle">circuit #2</text>
  <text class="stream-tag"   x="600" y="462" text-anchor="middle">low-latency RPC</text>

  <!-- circuit #3 -->
  <line class="circuit-line" x1="260" y1="560" x2="940" y2="560"/>
  <text class="stream-label" x="600" y="550" text-anchor="middle">circuit #3</text>
  <text class="stream-tag"   x="600" y="582" text-anchor="middle">streaming subscription</text>

  <!-- Connectors from nodes to streams -->
  <line stroke="#2563eb" stroke-width="3" x1="230" y1="200" x2="260" y2="200"/>
  <line stroke="#2563eb" stroke-width="3" x1="940" y1="200" x2="970" y2="200"/>
  <line stroke="#059669" stroke-width="3" x1="230" y1="320" x2="260" y2="320"/>
  <line stroke="#059669" stroke-width="3" x1="940" y1="320" x2="970" y2="320"/>
  <line stroke="#059669" stroke-width="3" x1="230" y1="440" x2="260" y2="440"/>
  <line stroke="#059669" stroke-width="3" x1="940" y1="440" x2="970" y2="440"/>
  <line stroke="#059669" stroke-width="3" x1="230" y1="560" x2="260" y2="560"/>
  <line stroke="#059669" stroke-width="3" x1="940" y1="560" x2="970" y2="560"/>

  <!-- Caption -->
  <text class="caption" x="600" y="725" text-anchor="middle">
    Multiple streams over a single QUIC connection. Independent flow control, no head-of-line blocking between them.
  </text>
</svg>
